<?xml version="1.0" encoding="UTF-8" standalone="no"?><svg xmlns:svg="http://www.w3.org/2000/svg" xmlns="http://www.w3.org/2000/svg" xmlns:xlink="http://www.w3.org/1999/xlink" version="1.0" width="64px" height="64px" viewBox="0 0 128 128" xml:space="preserve"><g><path d="M95 8.33l-4.76 10.75a39.58 39.58 0 0 1 13.24 4.65c5.8 3.6 13.13 14.56 13.13 14.56s-3.3-12.1-9.5-18.9A90.74 90.74 0 0 0 95 8.3zm30.26 38.17l-10.96 4.24a39.6 39.6 0 0 1 6.07 12.65c1.57 6.6-1 19.5-1 19.5s6.14-10.85 6.58-20.08a90.8 90.8 0 0 0-.7-16.4zm-5.52 48.57L109 90.32a39.57 39.57 0 0 1-4.65 13.23c-3.6 5.8-14.56 13.14-14.56 13.14s12-3.4 18.8-9.6A90.75 90.75 0 0 0 119.7 95zM81.5 125.5l-4.24-10.96a39.6 39.6 0 0 1-12.66 6.06c-6.63 1.57-19.57-1-19.57-1s10.84 6.15 20.07 6.58a90.74 90.74 0 0 0 16.4-.68zM33 119.82l4.75-10.75a39.57 39.57 0 0 1-13.23-4.65c-5.8-3.6-13.13-14.56-13.13-14.56s3.3 12.02 9.5 18.85A90.8 90.8 0 0 0 33 119.9zM2.74 81.5l10.96-4.24A39.58 39.58 0 0 1 7.64 64.6c-1.57-6.63 1-19.57 1-19.57S2.5 55.87 2.06 65.1a90.76 90.76 0 0 0 .68 16.4zm5.52-48.42L19 37.83a39.58 39.58 0 0 1 4.66-13.23c3.58-5.8 14.55-13.13 14.55-13.13s-12 3.3-18.8 9.53A90.75 90.75 0 0 0 8.3 33.08zM46.5 2.65l4.24 11.06A39.45 39.45 0 0 1 63.4 7.6c6.63-1.6 19.57 1 19.57 1S72.13 2.4 62.9 1.97a89.95 89.95 0 0 0-16.4.7z" fill="#000000"/><animateTransform attributeName="transform" type="rotate" from="0 64 64" to="45 64 64" dur="810ms" repeatCount="indefinite"></animateTransform></g></svg>